<?xml version="1.0" encoding="UTF-8"?>
<!-- Based on https://thenounproject.com/term/one-finger-pointing/131167/ -->
<svg
  xmlns="http://www.w3.org/2000/svg"
  xmlns:xlink="http://www.w3.org/1999/xlink"
  height="300px"
  width="300px"
  fill="#FFFFFF"
  x="0px"
  y="0px"
  viewBox="0 0 100 100"
  xml:space="preserve"
>
  <path
    d="M67.3,43.1c-0.8,0-1.5,0.1-2.3,0.4c-0.3-1.3-0.8-2.5-1.5-3.4c-1.1-1.3-2.6-2-4.3-2c-1.1,0-2.2,0.3-3.2,1  c-0.3-0.5-0.7-1-1-1.3c-1.2-1.2-2.8-1.9-4.5-1.9c-0.9,0-1.8,0.2-2.7,0.6v-12c0-2.7-1.1-4.4-2-5.3c-1.2-1.2-2.8-1.9-4.5-1.9  c-3.2,0-6.7,2.5-6.7,7.2v15.9c-2.1-1.4-4.5-1.9-6.2-1.9l0,0c-0.5,0-1,0.2-1.4,0.6c-0.4,0.4-0.6,0.9-0.6,1.5v23.5  c0,0.5,0.2,1,0.5,1.3l7.8,8.6v15.6c0,1.1,0.9,2,2,2h30.9c1.1,0,2-0.9,2-2V74l3.5-7.6c0.1-0.3,0.2-0.5,0.2-0.8v-16  C73.4,45.3,70.3,43.1,67.3,43.1z M69.4,65.1l-3.5,7.6c-0.1,0.3-0.2,0.5-0.2,0.8v14.1H38.9v-5.2h20.8c1.1,0,2-0.9,2-2s-0.9-2-2-2  H38.9v-5.2c0-0.5-0.2-1-0.5-1.3l-7.8-8.6V42.8c1.8,0.5,4.2,2,4.2,5.9v8.8c0,1.1,0.9,2,2,2s2-0.9,2-2v-33c0-3.3,3-3.8,4.3-2.5  c0.5,0.6,0.8,1.4,0.8,2.5V48c0,1.1,0.9,2,2,2s2-0.9,2-2v-4.9l0,0c0-3.3,3-3.8,4.3-2.5c0.5,0.6,0.8,1.4,0.8,2.5v5.4c0,1.1,0.9,2,2,2  s2-0.9,2-2v-3.1c0-2.2,1.1-3.2,2.2-3.2c0.3,0,0.8,0.1,1.2,0.6c0.5,0.6,0.7,1.5,0.7,2.6v4.2c0,1.1,0.9,2,2,2c1.1,0,2-0.9,2-2l0,0  c0-1.9,1.1-2.5,2.1-2.5s2.1,0.7,2.1,2.5L69.4,65.1L69.4,65.1z"
  ></path>
</svg>
